<mxfile host="app.diagrams.net" agent="Mozilla/5.0 (Windows NT 10.0; Win64; x64) AppleWebKit/537.36 (KHTML, like Gecko) Chrome/133.0.0.0 Safari/537.36" version="26.1.0">
  <diagram id="C5RBs43oDa-KdzZeNtuy" name="Page-1">
    <mxGraphModel dx="1500" dy="933" grid="1" gridSize="10" guides="1" tooltips="1" connect="1" arrows="1" fold="1" page="1" pageScale="1" pageWidth="827" pageHeight="1169" math="0" shadow="0">
      <root>
        <mxCell id="WIyWlLk6GJQsqaUBKTNV-0" />
        <mxCell id="WIyWlLk6GJQsqaUBKTNV-1" parent="WIyWlLk6GJQsqaUBKTNV-0" />
        <mxCell id="TseNVdiT5VvzMBGLSxzD-7" value="" style="edgeStyle=orthogonalEdgeStyle;rounded=0;orthogonalLoop=1;jettySize=auto;html=1;" edge="1" parent="WIyWlLk6GJQsqaUBKTNV-1" source="TseNVdiT5VvzMBGLSxzD-4" target="TseNVdiT5VvzMBGLSxzD-6">
          <mxGeometry relative="1" as="geometry" />
        </mxCell>
        <mxCell id="TseNVdiT5VvzMBGLSxzD-4" value="Start" style="strokeWidth=2;html=1;shape=mxgraph.flowchart.terminator;whiteSpace=wrap;" vertex="1" parent="WIyWlLk6GJQsqaUBKTNV-1">
          <mxGeometry x="200" y="20" width="100" height="40" as="geometry" />
        </mxCell>
        <mxCell id="TseNVdiT5VvzMBGLSxzD-9" value="" style="edgeStyle=orthogonalEdgeStyle;rounded=0;orthogonalLoop=1;jettySize=auto;html=1;" edge="1" parent="WIyWlLk6GJQsqaUBKTNV-1" source="TseNVdiT5VvzMBGLSxzD-6" target="TseNVdiT5VvzMBGLSxzD-8">
          <mxGeometry relative="1" as="geometry" />
        </mxCell>
        <mxCell id="TseNVdiT5VvzMBGLSxzD-6" value="Tekan tombol power" style="shape=parallelogram;html=1;strokeWidth=2;perimeter=parallelogramPerimeter;whiteSpace=wrap;rounded=1;arcSize=12;size=0.175;" vertex="1" parent="WIyWlLk6GJQsqaUBKTNV-1">
          <mxGeometry x="167.5" y="80" width="165" height="60" as="geometry" />
        </mxCell>
        <mxCell id="TseNVdiT5VvzMBGLSxzD-8" value="Daya Cukup?" style="strokeWidth=2;html=1;shape=mxgraph.flowchart.decision;whiteSpace=wrap;" vertex="1" parent="WIyWlLk6GJQsqaUBKTNV-1">
          <mxGeometry x="200" y="170" width="100" height="100" as="geometry" />
        </mxCell>
        <mxCell id="TseNVdiT5VvzMBGLSxzD-30" value="" style="edgeStyle=orthogonalEdgeStyle;rounded=0;orthogonalLoop=1;jettySize=auto;html=1;" edge="1" parent="WIyWlLk6GJQsqaUBKTNV-1" source="TseNVdiT5VvzMBGLSxzD-10" target="TseNVdiT5VvzMBGLSxzD-29">
          <mxGeometry relative="1" as="geometry" />
        </mxCell>
        <mxCell id="TseNVdiT5VvzMBGLSxzD-10" value="Bootloader Berjalan" style="rounded=1;whiteSpace=wrap;html=1;absoluteArcSize=1;arcSize=14;strokeWidth=2;" vertex="1" parent="WIyWlLk6GJQsqaUBKTNV-1">
          <mxGeometry x="190" y="330" width="120" height="60" as="geometry" />
        </mxCell>
        <mxCell id="TseNVdiT5VvzMBGLSxzD-17" value="" style="endArrow=classic;html=1;rounded=0;exitX=0.5;exitY=1;exitDx=0;exitDy=0;exitPerimeter=0;" edge="1" parent="WIyWlLk6GJQsqaUBKTNV-1" source="TseNVdiT5VvzMBGLSxzD-8" target="TseNVdiT5VvzMBGLSxzD-10">
          <mxGeometry relative="1" as="geometry">
            <mxPoint x="210" y="290" as="sourcePoint" />
            <mxPoint x="310" y="290" as="targetPoint" />
          </mxGeometry>
        </mxCell>
        <mxCell id="TseNVdiT5VvzMBGLSxzD-18" value="Ya" style="edgeLabel;resizable=0;html=1;;align=center;verticalAlign=middle;" connectable="0" vertex="1" parent="TseNVdiT5VvzMBGLSxzD-17">
          <mxGeometry relative="1" as="geometry" />
        </mxCell>
        <mxCell id="TseNVdiT5VvzMBGLSxzD-21" value="" style="endArrow=classic;html=1;rounded=0;entryX=0;entryY=0.5;entryDx=0;entryDy=0;exitX=1;exitY=0.5;exitDx=0;exitDy=0;exitPerimeter=0;" edge="1" parent="WIyWlLk6GJQsqaUBKTNV-1" source="TseNVdiT5VvzMBGLSxzD-8">
          <mxGeometry relative="1" as="geometry">
            <mxPoint x="293.5" y="220" as="sourcePoint" />
            <mxPoint x="355" y="220" as="targetPoint" />
          </mxGeometry>
        </mxCell>
        <mxCell id="TseNVdiT5VvzMBGLSxzD-22" value="Tidak" style="edgeLabel;resizable=0;html=1;;align=center;verticalAlign=middle;" connectable="0" vertex="1" parent="TseNVdiT5VvzMBGLSxzD-21">
          <mxGeometry relative="1" as="geometry" />
        </mxCell>
        <mxCell id="TseNVdiT5VvzMBGLSxzD-23" value="Laptop mati otomatis" style="rounded=1;whiteSpace=wrap;html=1;absoluteArcSize=1;arcSize=14;strokeWidth=2;" vertex="1" parent="WIyWlLk6GJQsqaUBKTNV-1">
          <mxGeometry x="354" y="190" width="136" height="60" as="geometry" />
        </mxCell>
        <mxCell id="TseNVdiT5VvzMBGLSxzD-29" value="Apakah Berhasil?" style="strokeWidth=2;html=1;shape=mxgraph.flowchart.decision;whiteSpace=wrap;" vertex="1" parent="WIyWlLk6GJQsqaUBKTNV-1">
          <mxGeometry x="191.25" y="430" width="117.5" height="110" as="geometry" />
        </mxCell>
        <mxCell id="TseNVdiT5VvzMBGLSxzD-31" value="" style="endArrow=classic;html=1;rounded=0;entryX=0.5;entryY=0;entryDx=0;entryDy=0;" edge="1" parent="WIyWlLk6GJQsqaUBKTNV-1" target="TseNVdiT5VvzMBGLSxzD-33">
          <mxGeometry relative="1" as="geometry">
            <mxPoint x="250" y="540" as="sourcePoint" />
            <mxPoint x="250" y="580" as="targetPoint" />
          </mxGeometry>
        </mxCell>
        <mxCell id="TseNVdiT5VvzMBGLSxzD-32" value="Ya" style="edgeLabel;resizable=0;html=1;;align=center;verticalAlign=middle;" connectable="0" vertex="1" parent="TseNVdiT5VvzMBGLSxzD-31">
          <mxGeometry relative="1" as="geometry" />
        </mxCell>
        <mxCell id="TseNVdiT5VvzMBGLSxzD-42" value="" style="edgeStyle=orthogonalEdgeStyle;rounded=0;orthogonalLoop=1;jettySize=auto;html=1;" edge="1" parent="WIyWlLk6GJQsqaUBKTNV-1" source="TseNVdiT5VvzMBGLSxzD-33" target="TseNVdiT5VvzMBGLSxzD-40">
          <mxGeometry relative="1" as="geometry" />
        </mxCell>
        <mxCell id="TseNVdiT5VvzMBGLSxzD-33" value="Masuk ke Desktop" style="rounded=1;whiteSpace=wrap;html=1;absoluteArcSize=1;arcSize=14;strokeWidth=2;" vertex="1" parent="WIyWlLk6GJQsqaUBKTNV-1">
          <mxGeometry x="190" y="585" width="120" height="60" as="geometry" />
        </mxCell>
        <mxCell id="TseNVdiT5VvzMBGLSxzD-36" value="" style="endArrow=classic;html=1;rounded=0;exitX=1;exitY=0.5;exitDx=0;exitDy=0;exitPerimeter=0;entryX=0;entryY=0.5;entryDx=0;entryDy=0;" edge="1" parent="WIyWlLk6GJQsqaUBKTNV-1" target="TseNVdiT5VvzMBGLSxzD-38">
          <mxGeometry relative="1" as="geometry">
            <mxPoint x="308.75" y="484.88" as="sourcePoint" />
            <mxPoint x="360" y="484.88" as="targetPoint" />
          </mxGeometry>
        </mxCell>
        <mxCell id="TseNVdiT5VvzMBGLSxzD-37" value="Tidak" style="edgeLabel;resizable=0;html=1;;align=center;verticalAlign=middle;" connectable="0" vertex="1" parent="TseNVdiT5VvzMBGLSxzD-36">
          <mxGeometry relative="1" as="geometry" />
        </mxCell>
        <mxCell id="TseNVdiT5VvzMBGLSxzD-38" value="Laptop mati" style="rounded=1;whiteSpace=wrap;html=1;absoluteArcSize=1;arcSize=14;strokeWidth=2;" vertex="1" parent="WIyWlLk6GJQsqaUBKTNV-1">
          <mxGeometry x="370" y="457.5" width="170" height="55" as="geometry" />
        </mxCell>
        <mxCell id="TseNVdiT5VvzMBGLSxzD-44" value="" style="edgeStyle=orthogonalEdgeStyle;rounded=0;orthogonalLoop=1;jettySize=auto;html=1;" edge="1" parent="WIyWlLk6GJQsqaUBKTNV-1" source="TseNVdiT5VvzMBGLSxzD-40" target="TseNVdiT5VvzMBGLSxzD-43">
          <mxGeometry relative="1" as="geometry" />
        </mxCell>
        <mxCell id="TseNVdiT5VvzMBGLSxzD-40" value="Pengguna menggunakan laptop" style="rounded=1;whiteSpace=wrap;html=1;absoluteArcSize=1;arcSize=14;strokeWidth=2;" vertex="1" parent="WIyWlLk6GJQsqaUBKTNV-1">
          <mxGeometry x="180" y="670" width="140" height="70" as="geometry" />
        </mxCell>
        <mxCell id="TseNVdiT5VvzMBGLSxzD-43" value="Matikan Laptop?" style="strokeWidth=2;html=1;shape=mxgraph.flowchart.decision;whiteSpace=wrap;" vertex="1" parent="WIyWlLk6GJQsqaUBKTNV-1">
          <mxGeometry x="191.25" y="770" width="117.5" height="110" as="geometry" />
        </mxCell>
        <mxCell id="TseNVdiT5VvzMBGLSxzD-54" value="" style="edgeStyle=orthogonalEdgeStyle;rounded=0;orthogonalLoop=1;jettySize=auto;html=1;" edge="1" parent="WIyWlLk6GJQsqaUBKTNV-1" source="TseNVdiT5VvzMBGLSxzD-45" target="TseNVdiT5VvzMBGLSxzD-53">
          <mxGeometry relative="1" as="geometry" />
        </mxCell>
        <mxCell id="TseNVdiT5VvzMBGLSxzD-45" value="Simpan &amp;amp; tutup aplikasi" style="rounded=1;whiteSpace=wrap;html=1;absoluteArcSize=1;arcSize=14;strokeWidth=2;" vertex="1" parent="WIyWlLk6GJQsqaUBKTNV-1">
          <mxGeometry x="190" y="910" width="120" height="70" as="geometry" />
        </mxCell>
        <mxCell id="TseNVdiT5VvzMBGLSxzD-48" value="" style="endArrow=classic;html=1;rounded=0;entryX=0.5;entryY=0;entryDx=0;entryDy=0;exitX=0.5;exitY=1;exitDx=0;exitDy=0;exitPerimeter=0;" edge="1" parent="WIyWlLk6GJQsqaUBKTNV-1" source="TseNVdiT5VvzMBGLSxzD-43" target="TseNVdiT5VvzMBGLSxzD-45">
          <mxGeometry relative="1" as="geometry">
            <mxPoint x="249.57" y="865" as="sourcePoint" />
            <mxPoint x="249.57" y="910" as="targetPoint" />
          </mxGeometry>
        </mxCell>
        <mxCell id="TseNVdiT5VvzMBGLSxzD-49" value="Ya" style="edgeLabel;resizable=0;html=1;;align=center;verticalAlign=middle;" connectable="0" vertex="1" parent="TseNVdiT5VvzMBGLSxzD-48">
          <mxGeometry relative="1" as="geometry" />
        </mxCell>
        <mxCell id="TseNVdiT5VvzMBGLSxzD-50" value="" style="endArrow=classic;html=1;rounded=0;exitX=1;exitY=0.5;exitDx=0;exitDy=0;exitPerimeter=0;entryX=1;entryY=0.5;entryDx=0;entryDy=0;" edge="1" parent="WIyWlLk6GJQsqaUBKTNV-1" source="TseNVdiT5VvzMBGLSxzD-43" target="TseNVdiT5VvzMBGLSxzD-40">
          <mxGeometry relative="1" as="geometry">
            <mxPoint x="320" y="824.79" as="sourcePoint" />
            <mxPoint x="390" y="825" as="targetPoint" />
            <Array as="points">
              <mxPoint x="380" y="825" />
              <mxPoint x="380" y="740" />
              <mxPoint x="380" y="705" />
            </Array>
          </mxGeometry>
        </mxCell>
        <mxCell id="TseNVdiT5VvzMBGLSxzD-51" value="Tidak" style="edgeLabel;resizable=0;html=1;;align=center;verticalAlign=middle;" connectable="0" vertex="1" parent="TseNVdiT5VvzMBGLSxzD-50">
          <mxGeometry relative="1" as="geometry" />
        </mxCell>
        <mxCell id="TseNVdiT5VvzMBGLSxzD-56" value="" style="edgeStyle=orthogonalEdgeStyle;rounded=0;orthogonalLoop=1;jettySize=auto;html=1;entryX=0;entryY=0.5;entryDx=0;entryDy=0;" edge="1" parent="WIyWlLk6GJQsqaUBKTNV-1" source="TseNVdiT5VvzMBGLSxzD-53" target="TseNVdiT5VvzMBGLSxzD-59">
          <mxGeometry relative="1" as="geometry">
            <mxPoint x="371.8499999999999" y="1025" as="targetPoint" />
          </mxGeometry>
        </mxCell>
        <mxCell id="TseNVdiT5VvzMBGLSxzD-53" value="Tekan Shutdown laptop" style="rounded=1;whiteSpace=wrap;html=1;absoluteArcSize=1;arcSize=14;strokeWidth=2;" vertex="1" parent="WIyWlLk6GJQsqaUBKTNV-1">
          <mxGeometry x="190" y="1000" width="120" height="50" as="geometry" />
        </mxCell>
        <mxCell id="TseNVdiT5VvzMBGLSxzD-61" value="" style="edgeStyle=orthogonalEdgeStyle;rounded=0;orthogonalLoop=1;jettySize=auto;html=1;" edge="1" parent="WIyWlLk6GJQsqaUBKTNV-1" source="TseNVdiT5VvzMBGLSxzD-59" target="TseNVdiT5VvzMBGLSxzD-60">
          <mxGeometry relative="1" as="geometry" />
        </mxCell>
        <mxCell id="TseNVdiT5VvzMBGLSxzD-59" value="Proses Shutdown berjalan" style="rounded=1;whiteSpace=wrap;html=1;absoluteArcSize=1;arcSize=14;strokeWidth=2;" vertex="1" parent="WIyWlLk6GJQsqaUBKTNV-1">
          <mxGeometry x="380" y="1000" width="150" height="50" as="geometry" />
        </mxCell>
        <mxCell id="TseNVdiT5VvzMBGLSxzD-60" value="Laptop mati sepehunya" style="shape=parallelogram;html=1;strokeWidth=2;perimeter=parallelogramPerimeter;whiteSpace=wrap;rounded=1;arcSize=12;size=0.23;" vertex="1" parent="WIyWlLk6GJQsqaUBKTNV-1">
          <mxGeometry x="550" y="995" width="190" height="60" as="geometry" />
        </mxCell>
        <mxCell id="TseNVdiT5VvzMBGLSxzD-62" value="End" style="strokeWidth=2;html=1;shape=mxgraph.flowchart.terminator;whiteSpace=wrap;" vertex="1" parent="WIyWlLk6GJQsqaUBKTNV-1">
          <mxGeometry x="670" y="450" width="100" height="60" as="geometry" />
        </mxCell>
        <mxCell id="TseNVdiT5VvzMBGLSxzD-63" value="" style="endArrow=classic;html=1;rounded=0;exitX=0.75;exitY=0;exitDx=0;exitDy=0;entryX=0.5;entryY=1;entryDx=0;entryDy=0;entryPerimeter=0;" edge="1" parent="WIyWlLk6GJQsqaUBKTNV-1" source="TseNVdiT5VvzMBGLSxzD-60" target="TseNVdiT5VvzMBGLSxzD-62">
          <mxGeometry width="50" height="50" relative="1" as="geometry">
            <mxPoint x="660" y="990" as="sourcePoint" />
            <mxPoint x="690" y="590" as="targetPoint" />
            <Array as="points">
              <mxPoint x="693" y="750" />
              <mxPoint x="720" y="750" />
            </Array>
          </mxGeometry>
        </mxCell>
        <mxCell id="TseNVdiT5VvzMBGLSxzD-67" value="" style="endArrow=classic;html=1;rounded=0;exitX=1;exitY=0.5;exitDx=0;exitDy=0;entryX=0;entryY=0.5;entryDx=0;entryDy=0;entryPerimeter=0;" edge="1" parent="WIyWlLk6GJQsqaUBKTNV-1" source="TseNVdiT5VvzMBGLSxzD-38" target="TseNVdiT5VvzMBGLSxzD-62">
          <mxGeometry width="50" height="50" relative="1" as="geometry">
            <mxPoint x="550" y="460" as="sourcePoint" />
            <mxPoint x="600" y="410" as="targetPoint" />
            <Array as="points">
              <mxPoint x="600" y="485" />
              <mxPoint x="600" y="480" />
            </Array>
          </mxGeometry>
        </mxCell>
        <mxCell id="TseNVdiT5VvzMBGLSxzD-68" value="" style="endArrow=classic;html=1;rounded=0;exitX=1;exitY=0.5;exitDx=0;exitDy=0;entryX=0.5;entryY=0;entryDx=0;entryDy=0;entryPerimeter=0;" edge="1" parent="WIyWlLk6GJQsqaUBKTNV-1" source="TseNVdiT5VvzMBGLSxzD-23" target="TseNVdiT5VvzMBGLSxzD-62">
          <mxGeometry width="50" height="50" relative="1" as="geometry">
            <mxPoint x="590" y="250" as="sourcePoint" />
            <mxPoint x="640" y="200" as="targetPoint" />
            <Array as="points">
              <mxPoint x="720" y="220" />
            </Array>
          </mxGeometry>
        </mxCell>
      </root>
    </mxGraphModel>
  </diagram>
</mxfile>
